<?xml version="1.0" encoding="UTF-8"?><svg id="Layer_2" xmlns="http://www.w3.org/2000/svg" viewBox="0 0 9.8 14.77"><defs><style>.cls-1{stroke:#303335;}.cls-1,.cls-2{fill:none;stroke-linecap:round;stroke-linejoin:round;stroke-width:.5px;}.cls-2{stroke:#f5832a;}</style></defs><g id="Layer_1-2"><path class="cls-2" d="m3.04,10.79h2.48m-2.48-1.24h2.48m.31,3.1c-1.2,0-2.17-1.04-2.17-2.33s.97-2.33,2.17-2.33"/><path class="cls-1" d="m6.63,6.45h-3.45C1.81,7.46.25,9.49.25,11.1c0,2.23,1.24,3.41,4.65,3.41s4.65-1.18,4.65-3.41c0-1.61-1.56-3.65-2.93-4.65ZM7.69.87l-2.17.93-.62-1.55-.62,1.55-2.17-.93s1.24,1.86,1.24,3.1h3.1c0-1.24,1.24-3.1,1.24-3.1ZM2.73,5.21h4.34"/></g></svg>