<?xml version="1.0" encoding="UTF-8"?><svg id="Layer_2" xmlns="http://www.w3.org/2000/svg" viewBox="0 0 16.3 9.03"><defs><style>.cls-1{stroke:#1a171d;}.cls-1,.cls-2{fill:none;stroke-linecap:round;stroke-linejoin:round;stroke-width:.5px;}.cls-2{stroke:#f5832a;}</style></defs><g id="Layer_1-2"><path class="cls-1" d="m.94,6.83v-2.56c0-.61.46-1.1,1.03-1.1h1.03L4.37.25h6.53l1.37,2.92h2.75c.57,0,1.03.49,1.03,1.1v2.56h-1.37m-2.75,0h-6.87m-2.75,0H.25"/><path class="cls-2" d="m3.88,8.78c-.73,0-1.33-.65-1.33-1.46s.6-1.46,1.33-1.46,1.33.66,1.33,1.46-.6,1.46-1.33,1.46Zm9.31,0c-.73,0-1.33-.65-1.33-1.46s.59-1.46,1.33-1.46,1.33.66,1.33,1.46-.59,1.46-1.33,1.46Zm-2.66-5.12l-.67-1.46h-.67"/></g></svg>