<?xml version="1.0" encoding="UTF-8"?><svg id="Layer_2" xmlns="http://www.w3.org/2000/svg" viewBox="0 0 13.67 13.67"><defs><style>.cls-1{fill:none;stroke:#1a171d;stroke-linecap:round;stroke-linejoin:round;stroke-width:.5px;}</style></defs><g id="Layer_1-2"><path class="cls-1" d="m12.99.67c-.56-.57-1.46-.57-2.03,0l-1.74,1.74C2.28,2.41.25,2.12.25,3.86c0,1.61,2.14.89,6.08,1.45l-3.47,3.48h-1.45c-.64,0-1.16.52-1.16,1.16,0,1.06.91,1.08,2.03,1.45.36,1.07.39,2.03,1.45,2.03.64,0,1.16-.52,1.16-1.16v-1.45l3.47-3.47c.56,3.95-.16,6.08,1.45,6.08,1.95,0,1.45-1.79,1.45-8.98l1.74-1.74c.56-.57.57-1.46,0-2.03Z"/></g></svg>